<svg xmlns="http://www.w3.org/2000/svg" xmlns:xlink="http://www.w3.org/1999/xlink" viewBox="0 0 109.88 93.06"><defs><style>.cls-1{isolation:isolate;}.cls-2{fill:#26ade4;}.cls-3{mix-blend-mode:multiply;fill:url(#linear-gradient);}</style><linearGradient id="linear-gradient" x1="56.93" y1="58.38" x2="65.46" y2="73.09" gradientUnits="userSpaceOnUse"><stop offset="0" stop-color="#272525" stop-opacity="0.4"/><stop offset="1" stop-color="#fff"/></linearGradient></defs><title>logo</title><g class="cls-1"><g id="Layer_1" data-name="Layer 1"><path class="cls-2" d="M100,83.81H76.52L42.34,26.57l8.34-13.95L73.56,50.91a3.89,3.89,0,0,0,3.35,1.9,3.85,3.85,0,0,0,2-.55,3.9,3.9,0,0,0,1.35-5.35L54,3a3.91,3.91,0,0,0-6.75.08l0,.06L34.45,24.57a3.9,3.9,0,0,0-.19.35,1.11,1.11,0,0,1-.07.16c0,.06,0,.12-.07.19a2,2,0,0,0-.08.26l0,.09a2.56,2.56,0,0,0,0,.27.43.43,0,0,0,0,.11,2,2,0,0,0,0,.24s0,.09,0,.14v.38s0,.1,0,.14a2.42,2.42,0,0,0,0,.25s0,.06,0,.09l.06.28a.24.24,0,0,1,0,.08l.09.28.06.15.08.2.18.34h0L71,89.71l0,.06.21.31.07.09q.14.17.3.33l.11.09a2.29,2.29,0,0,0,.23.21l.13.09.3.2.08,0,.41.2.08,0,.35.11.12,0,.34.07.13,0,.42,0H100a3.9,3.9,0,0,0,0-7.8Z"/><path class="cls-2" d="M104.07,86.44a51.69,51.69,0,0,0-18.29-26,51.36,51.36,0,0,0-61.73.12A51.75,51.75,0,0,0,5.8,86.83a3.9,3.9,0,0,0,2.62,4.86,3.94,3.94,0,0,0,1.12.16,4.38,4.38,0,0,0,.51,0L39.91,92H40a2.83,2.83,0,0,0,.41,0l.15,0,.33-.07.13,0a4.55,4.55,0,0,0,.88-.37l0,0,.07-.05.18-.12.15-.11.14-.12a1.07,1.07,0,0,0,.16-.14l.11-.11.15-.17.09-.11.14-.18.09-.14.11-.17a1.3,1.3,0,0,0,.08-.17.8.8,0,0,0,.08-.16,1.54,1.54,0,0,0,.08-.19l.06-.15.06-.21a1.24,1.24,0,0,0,0-.16,1.42,1.42,0,0,0,0-.2l0-.19a1.1,1.1,0,0,0,0-.18,1.55,1.55,0,0,0,0-.22s0-.05,0-.08,0,0,0-.08a1.85,1.85,0,0,0,0-.23.86.86,0,0,0,0-.16l0-.21a1.16,1.16,0,0,0,0-.18c0-.06,0-.12,0-.19l-.06-.19-.06-.16a1.8,1.8,0,0,0-.08-.21s-.05-.09-.07-.14a1.28,1.28,0,0,0-.11-.2l0-.07L34.86,72a3.9,3.9,0,0,0-6.7,4L33,84.12,15.13,84A43.85,43.85,0,0,1,55,58,43.3,43.3,0,0,1,96.61,88.74a3.9,3.9,0,0,0,7.46-2.3Z"/><path class="cls-3" d="M61.4,58.49A43.67,43.67,0,0,0,55,58c-1,0-1.94,0-2.9.1l10,16.7h9.09Z"/></g></g></svg>